<svg
   viewBox="0 0 748.49103 119.61941"
   width="350"
   version="1.1"
   id="strompreise_schweiz"
   xmlns:xlink="http://www.w3.org/1999/xlink"
   xmlns="http://www.w3.org/2000/svg"
   xmlns:svg="http://www.w3.org/2000/svg">
  <defs
      id="defs18">
   <linearGradient
      id="gradientOrange"
      x1="106.06602"
      y1="494.97476"
      x2="247.48737"
      y2="636.39612"
      gradientTransform="matrix(0,1.4142136,-0.70710678,0,744.93677,-7.1635244)"
      gradientUnits="userSpaceOnUse">
      <stop
         offset="0%"
         stop-color="#ffb84d"
         id="stop13" />
      <stop
         offset="100%"
         stop-color="#ff6600"
         id="stop15" />
   </linearGradient>
   <rect
      x="-697.65625"
      y="21.09375"
      width="459.375"
      height="122.65625"
      id="rect13386-8" />
   <linearGradient
      xlink:href="#gradientOrange"
      id="linearGradient7284"
      x1="376.15524"
      y1="282.8125"
      x2="394.15726"
      y2="282.8125"
      gradientUnits="userSpaceOnUse"
      gradientTransform="matrix(4.1678606,-2.6358136,2.6358136,4.1678606,-3391.0727,-290.05341)" />
   </defs>
   <g
      aria-label="Bulp"
      id="g_bulp"
      style="display:inline"
      transform="translate(1095.2698,187.56862)">
      <path
         d="m -999.96028,-99.562992 a 4.9313868,4.9313868 0 0 1 -1.53212,6.80368 l -25.0072,15.81488 a 4.9314005,4.9314005 0 0 1 -5.2716,-8.33572 l 25.0072,-15.814878 a 4.9313868,4.9313868 0 0 1 6.80372,1.532038 z m -7.23202,16.24317 -8.3358,5.27163 a 4.9314065,4.9314065 0 0 0 5.2717,8.33572 l 8.3357,-5.27163 a 4.9313882,4.9313882 0 0 0 -5.2716,-8.33572 z m -6.1943,-83.604438 a 43.741402,43.741402 0 0 1 2.8257,42.84913 l 3.5366,13.34227 a 4.9313868,4.9313868 0 0 1 -2.3755,5.46996 l -25.0072,15.814888 a 4.9313868,4.9313868 0 0 1 -5.7519,-0.33012 l -10.7469,-8.78231 a 43.741402,43.741402 0 0 1 -37.5023,-20.919168 44.38249,44.38249 0 0 1 75.0215,-47.44465 z m -12.5036,7.90743 a 30.821169,30.821169 0 0 0 -35.6539,-12.46068 5.077242,5.077242 0 0 0 3.2294,9.62728 21.204965,21.204965 0 0 1 24.0888,8.10503 4.9313898,4.9313898 0 0 0 8.3357,-5.27163 z"
         id="path4"
         style="fill:url(#linearGradient7284);fill-opacity:1;stroke-width:4.93138" />
      <g
         aria-label="Text"
         id="text_strompreise_schweiz">
         <path
            d="m -948.90381,-95.480453 q 0,6.03125 -4.375,9.40625 -4.375,3.375 -11.875,3.375 -8.125,0 -12.5,-2.09375 v -5.125 q 2.8125,1.1875 6.125,1.875 3.3125,0.6875 6.5625,0.6875 5.3125,0 8,-2 2.6875,-2.03125 2.6875,-5.625 0,-2.375 -0.96875,-3.875 -0.9375,-1.531247 -3.1875,-2.812497 -2.21875,-1.28125 -6.78125,-2.90625 -6.375,-2.28125 -9.125,-5.40625 -2.71875,-3.125 -2.71875,-8.15625 0,-5.28125 3.96875,-8.40625 3.96875,-3.125 10.5,-3.125 6.8125,0 12.53125,2.5 l -1.65625,4.625 q -5.65625,-2.375 -11,-2.375 -4.21875,0 -6.59375,1.8125 -2.375,1.8125 -2.375,5.03125 0,2.375 0.875,3.90625 0.875,1.5 2.9375,2.78125 2.09375,1.25 6.375,2.78125 7.1875,2.5625 9.875,5.5 2.71875,2.9375 2.71875,7.624997 z"
            id="letter_S" />
         <path
            d="m -929.27881,-86.980453 q 1.375,0 2.65625,-0.1875 1.28125,-0.21875 2.03125,-0.4375 v 3.96875 q -0.84375,0.40625 -2.5,0.65625 -1.625,0.28125 -2.9375,0.28125 -9.9375,0 -9.9375,-10.46875 v -20.374997 h -4.90625 v -2.5 l 4.90625,-2.15625 2.1875,-7.3125 h 3 v 7.9375 h 9.9375 v 4.03125 h -9.9375 v 20.156247 q 0,3.09375 1.46875,4.75 1.46875,1.65625 4.03125,1.65625 z"
            id="letter_t" />
         <path
            d="m -902.12256,-118.1992 q 2.28125,0 4.09375,0.375 l -0.71875,4.8125 q -2.125,-0.46875 -3.75,-0.46875 -4.15625,0 -7.125,3.375 -2.9375,3.375 -2.9375,8.40625 v 18.374997 h -5.1875 V -117.5742 h 4.28125 l 0.59375,6.34375 h 0.25 q 1.90625,-3.34375 4.59375,-5.15625 2.6875,-1.8125 5.90625,-1.8125 z"
            id="letter_r" />
         <path
            d="m -862.06006,-100.48045 q 0,8.374997 -4.21875,13.093747 -4.21875,4.6875 -11.65625,4.6875 -4.59375,0 -8.15625,-2.15625 -3.5625,-2.15625 -5.5,-6.1875 -1.9375,-4.03125 -1.9375,-9.437497 0,-8.375 4.1875,-13.03125 4.1875,-4.6875 11.625,-4.6875 7.1875,0 11.40625,4.78125 4.25,4.78125 4.25,12.9375 z m -26.09375,0 q 0,6.562497 2.625,9.999997 2.625,3.4375 7.71875,3.4375 5.09375,0 7.71875,-3.40625 2.65625,-3.4375 2.65625,-10.031247 0,-6.53125 -2.65625,-9.90625 -2.625,-3.40625 -7.78125,-3.40625 -5.09375,0 -7.6875,3.34375 -2.59375,3.34375 -2.59375,9.96875 z"
            id="letter_o" />
         <path
            d="m -809.31006,-83.324203 v -22.281247 q 0,-4.09375 -1.75,-6.125 -1.75,-2.0625 -5.4375,-2.0625 -4.84375,0 -7.15625,2.78125 -2.3125,2.78125 -2.3125,8.5625 v 19.124997 h -5.1875 v -22.281247 q 0,-4.09375 -1.75,-6.125 -1.75,-2.0625 -5.46875,-2.0625 -4.875,0 -7.15625,2.9375 -2.25,2.90625 -2.25,9.5625 v 17.968747 h -5.1875 V -117.5742 h 4.21875 l 0.84375,4.6875 h 0.25 q 1.46875,-2.5 4.125,-3.90625 2.6875,-1.40625 6,-1.40625 8.03125,0 10.5,5.8125 h 0.25 q 1.53125,-2.6875 4.4375,-4.25 2.90625,-1.5625 6.625,-1.5625 5.8125,0 8.6875,3 2.90625,2.96875 2.90625,9.53125 v 22.343747 z"
            id="letter_m" />
         <path
            d="m -777.49756,-82.699203 q -3.34375,0 -6.125,-1.21875 -2.75,-1.25 -4.625,-3.8125 h -0.375 q 0.375,3 0.375,5.6875 v 14.09375 h -5.1875 V -117.5742 h 4.21875 l 0.71875,4.6875 h 0.25 q 2,-2.8125 4.65625,-4.0625 2.65625,-1.25 6.09375,-1.25 6.8125,0 10.5,4.65625 3.71875,4.65625 3.71875,13.0625 0,8.437497 -3.78125,13.124997 -3.75,4.65625 -10.4375,4.65625 z m -0.75,-31.093747 q -5.25,0 -7.59375,2.90625 -2.34375,2.90625 -2.40625,9.25 v 1.15625 q 0,7.218747 2.40625,10.343747 2.40625,3.09375 7.71875,3.09375 4.4375,0 6.9375,-3.59375 2.53125,-3.59375 2.53125,-9.906247 0,-6.40625 -2.53125,-9.8125 -2.5,-3.4375 -7.0625,-3.4375 z"
            id="letter_p" />
         <path
            d="m -738.59131,-118.1992 q 2.28125,0 4.09375,0.375 l -0.71875,4.8125 q -2.125,-0.46875 -3.75,-0.46875 -4.15625,0 -7.125,3.375 -2.9375,3.375 -2.9375,8.40625 v 18.374997 h -5.1875 V -117.5742 h 4.28125 l 0.59375,6.34375 h 0.25 q 1.90625,-3.34375 4.59375,-5.15625 2.6875,-1.8125 5.90625,-1.8125 z"
            id="letter_r" />
         <path
            d="m -713.62256,-82.699203 q -7.59375,0 -12,-4.625 -4.375,-4.625 -4.375,-12.843747 0,-8.28125 4.0625,-13.15625 4.09375,-4.875 10.96875,-4.875 6.4375,0 10.1875,4.25 3.75,4.21875 3.75,11.15625 v 3.281247 h -23.59375 q 0.15625,6.03125 3.03125,9.15625 2.90625,3.125 8.15625,3.125 5.53125,0 10.9375,-2.3125 v 4.625 q -2.75,1.1875 -5.21875,1.6875 -2.4375,0.53125 -5.90625,0.53125 z m -1.40625,-31.156247 q -4.125,0 -6.59375,2.6875 -2.4375,2.6875 -2.875,7.4375 h 17.90625 q 0,-4.90625 -2.1875,-7.5 -2.1875,-2.625 -6.25,-2.625 z"
            id="letter_e" />
         <path
            d="m -686.99756,-83.324203 h -5.1875 V -117.5742 h 5.1875 z m -5.625,-43.531247 q 0,-1.78125 0.875,-2.59375 0.875,-0.84375 2.1875,-0.84375 1.25,0 2.15625,0.84375 0.90625,0.84375 0.90625,2.59375 0,1.75 -0.90625,2.625 -0.90625,0.84375 -2.15625,0.84375 -1.3125,0 -2.1875,-0.84375 -0.875,-0.875 -0.875,-2.625 z"
            id="letter_i" />
         <path
            d="m -653.90381,-92.667953 q 0,4.78125 -3.5625,7.375 -3.5625,2.59375 -10,2.59375 -6.8125,0 -10.625,-2.15625 v -4.8125 q 2.46875,1.25 5.28125,1.96875 2.84375,0.71875 5.46875,0.71875 4.0625,0 6.25,-1.28125 2.1875,-1.3125 2.1875,-3.96875 0,-2 -1.75,-3.40625 -1.71875,-1.4375 -6.75,-3.375 -4.78125,-1.781247 -6.8125,-3.093747 -2,-1.34375 -3,-3.03125 -0.96875,-1.6875 -0.96875,-4.03125 0,-4.1875 3.40625,-6.59375 3.40625,-2.4375 9.34375,-2.4375 5.53125,0 10.8125,2.25 l -1.84375,4.21875 q -5.15625,-2.125 -9.34375,-2.125 -3.6875,0 -5.5625,1.15625 -1.875,1.15625 -1.875,3.1875 0,1.375 0.6875,2.34375 0.71875,0.96875 2.28125,1.84375 1.5625,0.875 6,2.53125 6.09375,2.21875 8.21875,4.468747 2.15625,2.25 2.15625,5.65625 z"
            id="letter_s" />
         <path
            d="m -630.99756,-82.699203 q -7.59375,0 -12,-4.625 -4.375,-4.625 -4.375,-12.843747 0,-8.28125 4.0625,-13.15625 4.09375,-4.875 10.96875,-4.875 6.4375,0 10.1875,4.25 3.75,4.21875 3.75,11.15625 v 3.281247 h -23.59375 q 0.15625,6.03125 3.03125,9.15625 2.90625,3.125 8.15625,3.125 5.53125,0 10.9375,-2.3125 v 4.625 q -2.75,1.1875 -5.21875,1.6875 -2.4375,0.53125 -5.90625,0.53125 z m -1.40625,-31.156247 q -4.125,0 -6.59375,2.6875 -2.4375,2.6875 -2.875,7.4375 h 17.90625 q 0,-4.90625 -2.1875,-7.5 -2.1875,-2.625 -6.25,-2.625 z"
            id="letter_e" />
         <path
            d="m -565.71631,-96.011703 q 0,6.1875 -4.46875,9.75 -4.4375,3.5625 -12.375,3.5625 -7.3125,0 -12.9375,-2.75 v -9 q 4.625,2.0625 7.8125,2.90625 3.21875,0.84375 5.875,0.84375 3.1875,0 4.875,-1.21875 1.71875,-1.21875 1.71875,-3.625 0,-1.34375 -0.75,-2.375 -0.75,-1.0625 -2.21875,-2.03125 -1.4375,-0.968747 -5.90625,-3.093747 -4.1875,-1.96875 -6.28125,-3.78125 -2.09375,-1.8125 -3.34375,-4.21875 -1.25,-2.40625 -1.25,-5.625 0,-6.0625 4.09375,-9.53125 4.125,-3.46875 11.375,-3.46875 3.5625,0 6.78125,0.84375 3.25,0.84375 6.78125,2.375 l -3.125,7.53125 q -3.65625,-1.5 -6.0625,-2.09375 -2.375,-0.59375 -4.6875,-0.59375 -2.75,0 -4.21875,1.28125 -1.46875,1.28125 -1.46875,3.34375 0,1.28125 0.59375,2.25 0.59375,0.9375 1.875,1.84375 1.3125,0.875 6.15625,3.1875 6.40625,3.0625 8.78125,6.15625 2.375,3.0625 2.375,7.531247 z"
            id="letter_S" />
         <path
            d="m -543.99756,-82.699203 q -16.3125,0 -16.3125,-17.906247 0,-8.90625 4.4375,-13.59375 4.4375,-4.71875 12.71875,-4.71875 6.0625,0 10.875,2.375 l -2.8125,7.375 q -2.25,-0.90625 -4.1875,-1.46875 -1.9375,-0.59375 -3.875,-0.59375 -7.4375,0 -7.4375,10.5625 0,10.249997 7.4375,10.249997 2.75,0 5.09375,-0.71875 2.34375,-0.75 4.6875,-2.3125 v 8.15625 q -2.3125,1.46875 -4.6875,2.03125 -2.34375,0.5625 -5.9375,0.5625 z"
            id="letter_c" />
         <path
            d="m -493.02881,-83.324203 h -9.53125 v -20.406247 q 0,-7.5625 -5.625,-7.5625 -4,0 -5.78125,2.71875 -1.78125,2.71875 -1.78125,8.812497 v 16.4375 h -9.53125 V -131.9492 h 9.53125 v 9.90625 q 0,1.15625 -0.21875,5.4375 l -0.21875,2.8125 h 0.5 q 3.1875,-5.125 10.125,-5.125 6.15625,0 9.34375,3.3125 3.1875,3.3125 3.1875,9.5 z"
            id="letter_h" />
         <path
            d="m -454.49756,-83.324203 -2.6875,-12.21875 -3.625,-15.437497 h -0.21875 l -6.375,27.656247 h -10.25 l -9.9375,-34.937497 h 9.5 l 4.03125,15.46875 q 0.96875,4.156247 1.96875,11.468747 h 0.1875 q 0.125,-2.375 1.09375,-7.53125 l 0.5,-2.656247 4.3125,-16.75 h 10.5 l 4.09375,16.75 q 0.125,0.6875 0.375,2.031247 0.28125,1.34375 0.53125,2.875 0.25,1.5 0.4375,2.96875 0.21875,1.4375 0.25,2.3125 h 0.1875 q 0.28125,-2.25 1,-6.15625 0.71875,-3.937497 1.03125,-5.312497 l 4.1875,-15.46875 h 9.34375 l -10.0625,34.937497 z"
            id="letter_w" />
         <path
            d="m -413.96631,-112.1367 q -3.03125,0 -4.75,1.9375 -1.71875,1.90625 -1.96875,5.4375 h 13.375 q -0.0625,-3.53125 -1.84375,-5.4375 -1.78125,-1.9375 -4.8125,-1.9375 z m 1.34375,29.437497 q -8.4375,0 -13.1875,-4.65625 -4.75,-4.65625 -4.75,-13.187497 0,-8.78125 4.375,-13.5625 4.40625,-4.8125 12.15625,-4.8125 7.40625,0 11.53125,4.21875 4.125,4.21875 4.125,11.65625 v 4.624997 h -22.53125 q 0.15625,4.0625 2.40625,6.34375 2.25,2.28125 6.3125,2.28125 3.15625,0 5.96875,-0.65625 2.8125,-0.65625 5.875,-2.09375 v 7.375 q -2.5,1.25 -5.34375,1.84375 -2.84375,0.625 -6.9375,0.625 z"
            id="letter_e" />
         <path
            d="m -391.02881,-127.29295 q 0,-4.65625 5.1875,-4.65625 5.1875,0 5.1875,4.65625 0,2.21875 -1.3125,3.46875 -1.28125,1.21875 -3.875,1.21875 -5.1875,0 -5.1875,-4.6875 z m 9.9375,43.968747 h -9.53125 V -118.2617 h 9.53125 z"
            id="letter_i" />
         <path
            d="m -346.77881,-83.324203 h -27.59375 v -5.625 l 16.1875,-22.031247 h -15.21875 v -7.28125 h 26.0625 v 6.1875 l -15.75,21.468747 h 16.3125 z"
            id="letter_z" />
      </g>
   </g>
</svg>
